<svg width="137" height="15" viewBox="0 0 137 15" fill="none" xmlns="http://www.w3.org/2000/svg">
<path d="M131.439 14.6565V0.312744H136.151V14.6565H131.439Z" fill="black"/>
<path d="M122.247 14.6565H116.826V0.312744H122.685C124.978 0.312744 126.66 0.632422 127.73 1.27178C128.8 1.89723 129.335 2.76592 129.335 3.87784C129.335 5.32334 128.578 6.31712 127.063 6.85918C129.009 7.23446 129.982 8.38113 129.982 10.2992C129.982 11.7725 129.308 12.8705 127.959 13.5933C126.625 14.3021 124.721 14.6565 122.247 14.6565ZM121.475 5.98355H123.122C123.678 5.98355 124.13 5.85846 124.478 5.60827C124.825 5.35809 124.999 5.02451 124.999 4.60754C124.999 3.64851 124.346 3.16899 123.039 3.16899H121.475V5.98355ZM123.248 11.7169C123.942 11.7169 124.478 11.5779 124.853 11.2999C125.228 11.0219 125.416 10.6328 125.416 10.1324C125.416 9.59034 125.228 9.17337 124.853 8.88149C124.478 8.57571 123.942 8.42282 123.248 8.42282H121.455V11.7169H123.248Z" fill="black"/>
<path d="M110.031 14.6565V0.312744H114.743V14.6565H110.031Z" fill="black"/>
<path d="M102.87 14.9901C101.994 14.9901 101.104 14.8789 100.201 14.6565C99.2975 14.448 98.533 14.1631 97.9076 13.8017L98.6581 10.4034C99.4643 10.8343 100.215 11.1192 100.91 11.2582C101.619 11.3833 102.272 11.4458 102.87 11.4458C103.425 11.4458 103.842 11.3555 104.12 11.1748C104.412 10.9941 104.558 10.7509 104.558 10.4451C104.558 10.1671 104.398 9.9517 104.079 9.79881C103.759 9.63202 103.342 9.47913 102.828 9.34014C102.327 9.20115 101.792 9.04132 101.222 8.86063C100.653 8.66604 100.111 8.41586 99.5963 8.11008C99.0959 7.7904 98.6859 7.37343 98.3662 6.85917C98.0466 6.331 97.8867 5.6708 97.8867 4.87856C97.8867 3.87783 98.13 3.01609 98.6164 2.29334C99.1029 1.55669 99.7978 0.99378 100.701 0.604608C101.605 0.201536 102.668 0 103.891 0C104.711 0 105.51 0.111192 106.289 0.333576C107.081 0.542061 107.713 0.826991 108.186 1.18837L107.477 4.2531C106.768 3.96122 106.129 3.75274 105.559 3.62764C105.003 3.48865 104.475 3.41916 103.974 3.41916C103.391 3.41916 102.946 3.50255 102.64 3.66934C102.334 3.83613 102.182 4.05851 102.182 4.3365C102.182 4.60058 102.341 4.81601 102.661 4.9828C102.981 5.14959 103.391 5.30943 103.891 5.46232C104.391 5.61521 104.927 5.78894 105.496 5.98353C106.066 6.17812 106.601 6.43525 107.102 6.75493C107.602 7.0746 108.012 7.49157 108.332 8.00584C108.652 8.5201 108.811 9.16641 108.811 9.94475C108.811 11.557 108.283 12.801 107.227 13.6766C106.184 14.5523 104.732 14.9901 102.87 14.9901Z" fill="black"/>
<path d="M79.0986 14.6565V0.312744H83.2683L88.8974 7.92246V0.312744H92.7336V14.6565H88.5639L82.9348 7.35955V14.6565H79.0986Z" fill="black"/>
<path d="M72.3037 14.6565V0.312744H77.0155V14.6565H72.3037Z" fill="black"/>
<path d="M63.1173 14.6565V3.60681H59.8857V0.312744H71.2065V3.60681H67.975V14.6565H63.1173Z" fill="black"/>
<path d="M53.7045 14.9901C52.8288 14.9901 51.9393 14.8789 51.0359 14.6565C50.1324 14.448 49.368 14.1631 48.7425 13.8017L49.4931 10.4034C50.2992 10.8343 51.0498 11.1192 51.7447 11.2582C52.4536 11.3833 53.1068 11.4458 53.7045 11.4458C54.2604 11.4458 54.6774 11.3555 54.9554 11.1748C55.2473 10.9941 55.3932 10.7509 55.3932 10.4451C55.3932 10.1671 55.2334 9.9517 54.9137 9.79881C54.594 9.63202 54.177 9.47913 53.6628 9.34014C53.1624 9.20115 52.6273 9.04132 52.0574 8.86063C51.4876 8.66604 50.9455 8.41586 50.4313 8.11008C49.9309 7.7904 49.5209 7.37343 49.2012 6.85917C48.8815 6.331 48.7217 5.6708 48.7217 4.87856C48.7217 3.87783 48.9649 3.01609 49.4514 2.29334C49.9378 1.55669 50.6328 0.99378 51.5362 0.604608C52.4397 0.201536 53.5029 0 54.7261 0C55.5461 0 56.3453 0.111192 57.1236 0.333576C57.9159 0.542061 58.5483 0.826991 59.0209 1.18837L58.312 4.2531C57.6032 3.96122 56.9638 3.75274 56.3939 3.62764C55.838 3.48865 55.3098 3.41916 54.8095 3.41916C54.2257 3.41916 53.7809 3.50255 53.4751 3.66934C53.1694 3.83613 53.0165 4.05851 53.0165 4.3365C53.0165 4.60058 53.1763 4.81601 53.496 4.9828C53.8157 5.14959 54.2257 5.30943 54.7261 5.46232C55.2264 5.61521 55.7615 5.78894 56.3314 5.98353C56.9013 6.17812 57.4364 6.43525 57.9367 6.75493C58.4371 7.0746 58.8471 7.49157 59.1668 8.00584C59.4865 8.5201 59.6463 9.16641 59.6463 9.94475C59.6463 11.557 59.1182 12.801 58.0618 13.6766C57.0194 14.5523 55.5669 14.9901 53.7045 14.9901Z" fill="black"/>
<path d="M42.5312 14.6565V0.312744H47.243V14.6565H42.5312Z" fill="black"/>
<path d="M39.5125 14.9901C38.5117 14.9901 37.6848 14.8442 37.0315 14.5523C36.3782 14.2465 35.857 13.8295 35.4679 13.3014C35.0787 12.7732 34.7868 12.1547 34.5922 11.4459C34.3976 10.737 34.2656 9.97257 34.1961 9.15252H33.2162V14.6565H28.6504V0.312744H34.5505C36.83 0.312744 38.4701 0.715815 39.4708 1.52196C40.4854 2.3142 40.9927 3.39138 40.9927 4.75348C40.9927 5.57352 40.7703 6.31017 40.3256 6.96343C39.8808 7.60278 39.165 8.1379 38.1782 8.56876C38.2338 8.87454 38.2824 9.12473 38.3241 9.31931C38.3658 9.5139 38.4284 9.72933 38.5117 9.96562C38.6924 10.466 38.9148 10.8135 39.1789 11.008C39.4569 11.2026 39.8322 11.2999 40.3047 11.2999C40.6105 11.2999 40.9163 11.2582 41.2221 11.1748L41.4722 14.594C41.1943 14.7052 40.8954 14.7955 40.5758 14.865C40.27 14.9484 39.9155 14.9901 39.5125 14.9901ZM33.2162 6.29627H34.0085C35.037 6.29627 35.7597 6.18508 36.1767 5.9627C36.6076 5.72641 36.823 5.33029 36.823 4.77433C36.823 4.30176 36.6493 3.96124 36.3018 3.75275C35.9543 3.53037 35.4053 3.41918 34.6548 3.41918H33.2162V6.29627Z" fill="black"/>
<path d="M12.7139 14.6565V0.312744H17.4048V5.71251H21.8455V0.312744H26.5573V14.6565H21.8455V9.00658H17.4048V14.6565H12.7139Z" fill="black"/>
<path d="M7.46378 14.9901C5.96268 14.9901 4.64922 14.6913 3.5234 14.0936C2.41148 13.4821 1.54279 12.6273 0.917336 11.5292C0.305778 10.4312 0 9.15251 0 7.69311C0 6.19201 0.319678 4.86466 0.959033 3.71104C1.61229 2.55742 2.50182 1.65398 3.62765 1.00073C4.76737 0.333577 6.07387 0 7.54717 0C9.18726 0 10.4729 0.319678 11.4041 0.959033L10.8412 4.27395C10.4382 4.07936 10.0142 3.94037 9.56948 3.85698C9.13861 3.75969 8.72859 3.71104 8.33941 3.71104C7.19969 3.71104 6.30321 4.05156 5.64995 4.73262C4.9967 5.41367 4.67007 6.3588 4.67007 7.56802C4.67007 8.70774 4.9828 9.60422 5.60826 10.2575C6.24761 10.8968 7.1302 11.2165 8.25602 11.2165C8.70079 11.2165 9.10386 11.1748 9.46524 11.0914C9.84051 11.008 10.2992 10.8551 10.8412 10.6328L11.425 13.9268C10.2158 14.6357 8.89538 14.9901 7.46378 14.9901Z" fill="black"/>
</svg>
